<svg width="256" height="256" viewBox="0 0 256 256" fill="none" xmlns="http://www.w3.org/2000/svg">
<g clip-path="url(#clip0_3042_1300)">
<path d="M143.82 186.245L156.16 198.584C156.72 199.144 156.9 199.984 156.6 200.724L137.3 249.66C135.8 253.48 132.1 256 128 256C123.9 256 120.2 253.48 118.7 249.66L90.92 179.226L45.98 224.162C45.2 224.942 43.94 224.942 43.16 224.162L31.84 212.843C31.06 212.063 31.06 210.803 31.84 210.023L87.3 154.567C89.1 152.768 91.48 151.528 94.02 151.388C98.46 151.148 102.38 153.767 103.94 157.707L128.02 218.743L140.56 186.925C141.08 185.585 142.82 185.225 143.84 186.245H143.82ZM210.02 31.8364L165.08 76.7731L137.3 6.33829C135.52 1.83862 130.74 -0.841187 125.8 0.238734C122.46 0.97868 119.8 3.4985 118.56 6.67826L99.4 55.2547C99.1 55.9947 99.28 56.8346 99.84 57.3946L112.18 69.7336C113.2 70.7536 114.92 70.3936 115.46 69.0537L128 37.236L152.08 98.2716C153.32 101.411 156.04 103.711 159.34 104.391C160.02 104.531 160.7 104.591 161.38 104.591C164 104.591 166.56 103.551 168.46 101.671L224.18 45.9554C224.96 45.1754 224.96 43.9155 224.18 43.1356L212.86 31.8164C212.08 31.0365 210.82 31.0365 210.04 31.8164L210.02 31.8364ZM69.06 140.528L37.24 127.989L98.28 103.911C102.22 102.351 104.84 98.4315 104.6 93.9919C104.46 91.4521 103.22 89.0722 101.42 87.2724L45.98 31.8364C45.2 31.0565 43.94 31.0565 43.16 31.8364L31.84 43.1556C31.06 43.9355 31.06 45.1954 31.84 45.9754L76.78 90.9121L6.34 118.69C2.52 120.19 0 123.89 0 127.989C0 132.089 2.52 135.789 6.34 137.289L55.28 156.587C56.02 156.887 56.86 156.707 57.42 156.147L69.76 143.808C70.78 142.788 70.42 141.068 69.08 140.528H69.06ZM249.66 118.69L200.72 99.3915C199.98 99.0915 199.14 99.2715 198.58 99.8314L186.24 112.171C185.22 113.19 185.58 114.91 186.92 115.45L218.74 127.989L157.7 152.068C153.76 153.628 151.14 157.547 151.38 161.987C151.52 164.527 152.76 166.907 154.56 168.706L210.02 224.162C210.8 224.942 212.06 224.942 212.84 224.162L224.16 212.843C224.94 212.063 224.94 210.803 224.16 210.023L179.22 165.087L249.66 137.309C253.48 135.809 256 132.109 256 128.009C256 123.91 253.48 120.21 249.66 118.71V118.69Z" fill="white"/>
</g>
<defs>
<clipPath id="clip0_3042_1300">
<rect width="256" height="256" fill="white"/>
</clipPath>
</defs>
</svg>
